<?xml version="1.0" ?><svg enable-background="new 0 0 64 64" height="64px" id="Layer_1" version="1.1" viewBox="0 0 64 64" width="64px" xml:space="preserve" xmlns="http://www.w3.org/2000/svg" xmlns:xlink="http://www.w3.org/1999/xlink"><g><g><rect fill="#7ED1B5" height="8.596" transform="matrix(-0.3176 -0.9482 0.9482 -0.3176 11.8195 72.5063)" width="8.272" x="27.865" y="27.702"/><path d="M23.614,4.054C2.657,10.342-2.236,19.423,4.053,40.384c6.288,20.96,15.373,25.852,36.331,19.562    c20.961-6.289,25.852-15.371,19.563-36.33C53.66,2.655,44.576-2.233,23.614,4.054z M49.345,37.223l-3.951,1.322l1.368,4.091    c0.555,1.655-0.336,3.447-1.994,4.001c-0.361,0.121-0.726,0.173-1.084,0.165c-1.292-0.034-2.484-0.862-2.917-2.157l-1.37-4.092    l-8.151,2.732l1.37,4.088c0.556,1.656-0.338,3.449-1.994,4.005c-0.361,0.119-0.727,0.171-1.084,0.161    c-1.292-0.033-2.484-0.862-2.917-2.156l-1.37-4.091l-3.953,1.326c-0.359,0.119-0.727,0.171-1.086,0.161    c-1.291-0.034-2.482-0.863-2.915-2.158c-0.555-1.654,0.336-3.447,1.994-4.003l3.954-1.323l-2.629-7.845l-3.952,1.324    c-0.361,0.121-0.726,0.173-1.087,0.163c-1.29-0.032-2.481-0.86-2.915-2.158c-0.555-1.654,0.339-3.447,1.992-4l3.955-1.326    l-1.37-4.088c-0.555-1.658,0.336-3.45,1.994-4.002c1.656-0.556,3.449,0.338,4.003,1.992l1.368,4.092l8.153-2.73l-1.372-4.09    c-0.556-1.656,0.34-3.447,1.994-4.003c1.656-0.554,3.449,0.34,4.003,1.995l1.368,4.089l3.955-1.324    c1.656-0.553,3.445,0.341,4,1.995c0.555,1.656-0.336,3.447-1.994,4.003l-3.952,1.322l2.627,7.848l3.954-1.326    c1.655-0.554,3.447,0.338,4.002,1.995C51.895,34.877,51.001,36.67,49.345,37.223z" fill="#7ED1B5"/></g><rect fill="#9DEACE" height="8.596" transform="matrix(-0.3176 -0.9482 0.9482 -0.3176 11.8195 72.5063)" width="8.272" x="27.865" y="27.702"/><polygon fill="#7ED1B5" points="26.611,29.442 29.238,37.286 37.39,34.558 34.039,28.694  "/><polygon fill="#5FB2A2" points="26.611,29.442 29.238,37.286 37.39,34.558 31.657,33.697  "/><g><g><path d="M31.54,17.1c-0.35,0.719-0.431,1.57-0.157,2.387l0.51,1.521l0.862-0.29L31.54,17.1z" fill="#5FB2A2"/><path d="M17.395,21.837c-0.35,0.719-0.432,1.567-0.158,2.389l0.508,1.516l0.862-0.288L17.395,21.837z" fill="#5FB2A2"/><path d="M49.345,37.223l-3.951,1.322l0.86,2.573l3.09-1.036c1.657-0.553,2.55-2.346,1.996-4.003     c-0.051-0.147-0.119-0.28-0.188-0.415C50.789,36.376,50.162,36.95,49.345,37.223z" fill="#5FB2A2"/><path d="M23.614,6.913C44.576,0.626,53.66,5.515,59.946,26.476c1.474,4.915,2.327,9.172,2.508,12.896     c0.232-4.363-0.641-9.533-2.508-15.755C53.66,2.655,44.576-2.233,23.614,4.054C7.571,8.866,0.951,15.324,1.545,27.486     C2.093,17.143,8.878,11.333,23.614,6.913z" fill="#9DEACE"/><path d="M44.709,23.382l-3.952,1.322l0.862,2.57l3.09-1.033c1.657-0.556,2.549-2.347,1.994-4.003     c-0.048-0.148-0.119-0.278-0.186-0.415C46.152,22.534,45.525,23.108,44.709,23.382z" fill="#5FB2A2"/><path d="M12.661,33.638c0.434,1.299,1.625,2.127,2.915,2.159c0.361,0.01,0.726-0.042,1.087-0.163l3.952-1.324     l1.767,5.273l0.862-0.288l-2.629-7.845l-3.952,1.324c-0.361,0.121-0.726,0.173-1.087,0.163c-1.141-0.028-2.204-0.684-2.735-1.733     C12.471,31.933,12.38,32.805,12.661,33.638z" fill="#5FB2A2"/><path d="M44.769,46.637c-0.361,0.121-0.726,0.173-1.084,0.165c-1.292-0.034-2.484-0.862-2.917-2.157l-1.37-4.092     l-8.151,2.732l0.862,2.569l7.289-2.442l1.37,4.092c0.433,1.295,1.625,2.123,2.917,2.157c0.359,0.008,0.723-0.044,1.084-0.165     c1.657-0.554,2.549-2.346,1.994-4.001l-0.158-0.473C46.247,45.759,45.606,46.356,44.769,46.637z" fill="#5FB2A2"/><path d="M30.623,51.378c-0.361,0.119-0.727,0.171-1.084,0.161c-1.292-0.033-2.484-0.862-2.917-2.156l-1.37-4.091     l-3.953,1.326c-0.359,0.119-0.727,0.171-1.086,0.161c-1.142-0.031-2.204-0.687-2.735-1.733c-0.371,0.73-0.462,1.599-0.18,2.435     c0.433,1.295,1.625,2.124,2.915,2.158c0.359,0.01,0.728-0.043,1.086-0.162l3.953-1.325l1.37,4.091     c0.433,1.294,1.625,2.123,2.917,2.156c0.357,0.01,0.723-0.042,1.084-0.161c1.656-0.556,2.549-2.349,1.994-4.005l-0.157-0.471     C32.1,50.498,31.46,51.096,30.623,51.378z" fill="#5FB2A2"/></g></g><path d="M35.707,53.475c-17.328,0-31.675-12.493-34.166-28.782c-0.22,4.353,0.653,9.5,2.511,15.691   c6.288,20.96,15.373,25.852,36.331,19.562c13.822-4.146,20.652-9.511,21.901-18.689C55.948,48.72,46.395,53.475,35.707,53.475z" fill="#5FB2A2"/></g></svg>